<svg width="100%" height="100%" viewBox="29.81 29.81 341.68 102.37" version="1.1" xmlns="http://www.w3.org/2000/svg" xml:space="preserve" style="fill-rule:evenodd;clip-rule:evenodd;stroke-linejoin:round;stroke-miterlimit:2;"><g transform="matrix(0.431413,0,0,0.431413,0,0)"><path d="M352.4,306.4L283.3,306.4L283.3,69.1L352.4,69.1L352.4,306.4ZM464.4,243.8L464.4,69.1L395.3,69.1L395.3,306.4L510.6,306.4L510.6,243.8L464.4,243.8ZM608.8,243.8L608.8,69.1L539.7,69.1L539.7,306.4L655,306.4L655,243.8L608.8,243.8ZM861.1,306.4L790.8,306.4L786,273.5L749.8,273.5L745,306.4L674.7,306.4L723.5,69.1L808.9,69.1L861.1,306.4ZM783.6,229.2L771.5,161.1L764.8,161.1L752.6,229.2L783.6,229.2ZM252.8,241C253.1,220.2 245.9,201 230.4,187.7C240.7,173.9 246.8,156.7 246.8,138.8C246.8,103.7 222.3,77.2 188.7,71.2C180.1,69.7 173.9,69.1 162,69.1L69.1,69.1L69.1,306.4L187.4,306.4C223.5,306.4 252.8,277.1 252.8,241ZM180.4,143.6C180.4,151.4 174.2,157.7 166.5,157.7L138.1,157.7L138.1,129.5L166.5,129.5C174.2,129.5 180.4,135.8 180.4,143.6ZM169.3,215.5C177,215.5 183.2,221.8 183.2,229.6C183.2,237.4 177,243.7 169.3,243.7L138.2,243.7L138.2,215.5L169.3,215.5Z" style="fill:white;fill-rule:nonzero;"></path></g></svg>